<?xml version="1.0" encoding="UTF-8"?>
<svg id="_レイヤー_2" data-name="レイヤー_2" xmlns="http://www.w3.org/2000/svg" xmlns:xlink="http://www.w3.org/1999/xlink" viewBox="0 0 311.64 373.41">
  <defs>
    <style>
      .cls-1 {
        fill: url(#_名称未設定グラデーション_31-5);
      }

      .cls-2 {
        fill: #231815;
        font-family: Meiryo, Meiryo;
        font-size: 35.17px;
        letter-spacing: .02em;
      }

      .cls-3 {
        fill: #5bc3e0;
      }

      .cls-4 {
        fill: #fff;
      }

      .cls-5 {
        fill: url(#_名称未設定グラデーション_31-6);
      }

      .cls-6 {
        fill: url(#_名称未設定グラデーション_33);
      }

      .cls-7 {
        fill: url(#_名称未設定グラデーション_31);
      }

      .cls-8 {
        fill: url(#_名称未設定グラデーション_33-2);
      }

      .cls-9 {
        fill: url(#_名称未設定グラデーション_20);
      }

      .cls-10 {
        fill: url(#_名称未設定グラデーション_31-4);
      }

      .cls-11 {
        fill: url(#_名称未設定グラデーション_31-7);
      }

      .cls-12 {
        fill: url(#_名称未設定グラデーション_33-4);
      }

      .cls-13 {
        fill: url(#_名称未設定グラデーション_33-3);
      }

      .cls-14 {
        fill: url(#_名称未設定グラデーション_31-2);
      }

      .cls-15 {
        fill: url(#_名称未設定グラデーション_31-3);
      }
    </style>
    <linearGradient id="_名称未設定グラデーション_20" data-name="名称未設定グラデーション 20" x1="110.18" y1="155.58" x2="212.05" y2="155.58" gradientTransform="translate(1.75 -3.02) rotate(1.22)" gradientUnits="userSpaceOnUse">
      <stop offset="0" stop-color="#fff"/>
      <stop offset=".21" stop-color="#fcfefe"/>
      <stop offset=".36" stop-color="#c2eaf4"/>
      <stop offset=".52" stop-color="#88d7ea"/>
      <stop offset=".67" stop-color="#59c8e3"/>
      <stop offset=".8" stop-color="#38bddd"/>
      <stop offset=".91" stop-color="#24b6da"/>
      <stop offset=".99" stop-color="#1db4d9"/>
    </linearGradient>
    <linearGradient id="_名称未設定グラデーション_31" data-name="名称未設定グラデーション 31" x1="164.41" y1="185.79" x2="179.44" y2="185.79" gradientUnits="userSpaceOnUse">
      <stop offset="0" stop-color="#fff"/>
      <stop offset="1" stop-color="#28a9cb"/>
    </linearGradient>
    <linearGradient id="_名称未設定グラデーション_31-2" data-name="名称未設定グラデーション 31" x1="132.07" y1="190.37" x2="147.1" y2="190.37" xlink:href="#_名称未設定グラデーション_31"/>
    <linearGradient id="_名称未設定グラデーション_31-3" data-name="名称未設定グラデーション 31" x1="106.51" y1="180.39" x2="116.53" y2="180.39" xlink:href="#_名称未設定グラデーション_31"/>
    <linearGradient id="_名称未設定グラデーション_31-4" data-name="名称未設定グラデーション 31" x1="91.82" y1="159.13" x2="101.84" y2="159.13" xlink:href="#_名称未設定グラデーション_31"/>
    <linearGradient id="_名称未設定グラデーション_31-5" data-name="名称未設定グラデーション 31" x1="88.52" y1="137.87" x2="93.53" y2="137.87" xlink:href="#_名称未設定グラデーション_31"/>
    <linearGradient id="_名称未設定グラデーション_31-6" data-name="名称未設定グラデーション 31" x1="90.12" y1="111.51" x2="95.13" y2="111.51" xlink:href="#_名称未設定グラデーション_31"/>
    <linearGradient id="_名称未設定グラデーション_31-7" data-name="名称未設定グラデーション 31" x1="106.21" y1="90.84" x2="109.21" y2="90.84" xlink:href="#_名称未設定グラデーション_31"/>
    <linearGradient id="_名称未設定グラデーション_33" data-name="名称未設定グラデーション 33" x1="143.4" y1="173.32" x2="147.24" y2="173.32" gradientUnits="userSpaceOnUse">
      <stop offset="0" stop-color="#fff"/>
      <stop offset=".96" stop-color="#28a9cb"/>
    </linearGradient>
    <linearGradient id="_名称未設定グラデーション_33-2" data-name="名称未設定グラデーション 33" x1="117.64" y1="161.1" x2="121.48" y2="161.1" xlink:href="#_名称未設定グラデーション_33"/>
    <linearGradient id="_名称未設定グラデーション_33-3" data-name="名称未設定グラデーション 33" x1="111.63" y1="136.6" x2="112.91" y2="136.6" xlink:href="#_名称未設定グラデーション_33"/>
    <linearGradient id="_名称未設定グラデーション_33-4" data-name="名称未設定グラデーション 33" x1="116.12" y1="121.44" x2="117.4" y2="121.44" xlink:href="#_名称未設定グラデーション_33"/>
  </defs>
  <g id="_レイヤー_1-2" data-name="レイヤー_1">
    <g>
      <rect class="cls-4" width="311.64" height="373.41"/>
      <g>
        <path class="cls-3" d="M157.86,249.48c-21.07,0-37.58-4.54-37.58-10.35h.95c0,4.54,14.72,9.4,36.64,9.4s36.64-4.86,36.64-9.4h.95c0,5.8-16.51,10.35-37.58,10.35Z"/>
        <g>
          <g>
            <g>
              <g>
                <path class="cls-9" d="M107.72,195.9c-.56,26.41,21.78,48.3,49.91,48.9,28.12.6,51.38-20.32,51.94-46.73s-39.74-130.76-52.76-131.03c-16.85-.36-48.53,102.46-49.09,128.86Z"/>
                <path class="cls-3" d="M158.81,245.3c-.4,0-.8,0-1.2-.01-28.36-.6-50.96-22.77-50.4-49.41.28-13.15,8.22-45.23,18.47-74.62,5.75-16.48,20.25-54.73,31.04-54.73.03,0,.06,0,.1,0,7.27.15,21.26,29.05,31.92,56.03,10.83,27.39,21.62,61.36,21.32,75.51-.27,12.91-5.89,24.93-15.8,33.85-9.62,8.65-22.17,13.38-35.46,13.38ZM156.73,67.53c-7.04,0-18.28,20.19-30.09,54.06-10.22,29.31-18.13,61.26-18.41,74.31-.56,26.09,21.61,47.79,49.42,48.38,13.49.28,26.25-4.37,35.96-13.11,9.71-8.73,15.2-20.5,15.47-33.13.25-11.94-8.48-42.83-21.25-75.12-13.05-33.02-25.52-55.28-31.02-55.4-.03,0-.05,0-.08,0Z"/>
              </g>
              <g>
                <path class="cls-7" d="M171.92,193.57c10.01,0,10.03-15.56,0-15.56s-10.03,15.56,0,15.56h0Z"/>
                <path class="cls-14" d="M139.58,198.15c10.01,0,10.03-15.56,0-15.56s-10.03,15.56,0,15.56h0Z"/>
                <path class="cls-15" d="M111.52,185.58c6.67,0,6.69-10.37,0-10.37s-6.69,10.37,0,10.37h0Z"/>
                <path class="cls-10" d="M96.83,164.31c6.67,0,6.69-10.37,0-10.37s-6.69,10.37,0,10.37h0Z"/>
                <path class="cls-1" d="M91.03,140.47c3.34,0,3.34-5.19,0-5.19s-3.34,5.19,0,5.19h0Z"/>
                <path class="cls-5" d="M92.62,114.1c3.34,0,3.34-5.19,0-5.19s-3.34,5.19,0,5.19h0Z"/>
                <path class="cls-11" d="M107.71,92.4c2,0,2.01-3.11,0-3.11s-2.01,3.11,0,3.11h0Z"/>
              </g>
              <g>
                <path class="cls-6" d="M145.32,175.31c2.56,0,2.56-3.98,0-3.98s-2.56,3.98,0,3.98h0Z"/>
                <path class="cls-8" d="M119.56,163.09c2.56,0,2.56-3.98,0-3.98s-2.56,3.98,0,3.98h0Z"/>
                <path class="cls-13" d="M112.27,137.26c.85,0,.85-1.33,0-1.33s-.85,1.33,0,1.33h0Z"/>
                <path class="cls-12" d="M116.76,122.1c.85,0,.85-1.33,0-1.33s-.85,1.33,0,1.33h0Z"/>
              </g>
            </g>
            <path class="cls-3" d="M157.86,256.71c-26.63,0-47.5-8.58-47.5-19.53h1.46c0,9.96,20.65,18.06,46.03,18.06s46.03-8.1,46.03-18.06h1.46c0,10.95-20.86,19.53-47.5,19.53Z"/>
          </g>
          <text class="cls-2" transform="translate(67.23 309.5) scale(.75 1)"><tspan x="0" y="0">CLEAR PULSE</tspan></text>
        </g>
      </g>
    </g>
  </g>
</svg>